<svg id="Capa_1" enable-background="new 0 0 512 512" height="512" viewBox="0 0 512 512" width="512" xmlns="http://www.w3.org/2000/svg"><g><g><path clip-rule="evenodd" d="m59.931 51.117c50.862-18.514 110.399 16.755 132.996 78.788 22.567 62.033-.368 127.325-51.23 145.868-50.892 18.512-110.43-16.784-132.997-78.817-22.596-62.032.34-127.326 51.231-145.839z" fill="#b3e59f" fill-rule="evenodd"/></g><g><path clip-rule="evenodd" d="m75.468 46.723c46.864-7.088 97.018 27.046 117.289 82.786 22.596 62.032-.341 127.325-51.23 145.839-13.24 4.819-27.076 5.982-40.685 3.997 5.273-.793 10.519-2.126 15.679-3.997 50.891-18.514 73.827-83.807 51.23-145.839-16.699-45.873-53.612-77.116-92.283-82.786z" fill="#95d6a4" fill-rule="evenodd"/></g><g><path clip-rule="evenodd" d="m452.085 51.117c-50.89-18.514-110.427 16.755-132.995 78.788-22.567 62.033.369 127.325 51.231 145.868 50.862 18.513 110.428-16.784 132.995-78.816 22.568-62.033-.368-127.327-51.231-145.84z" fill="#fff0af" fill-rule="evenodd"/></g><g><path clip-rule="evenodd" d="m452.085 51.117c-13.239-4.82-27.075-5.983-40.712-3.998 5.302.822 10.547 2.126 15.707 3.998 50.862 18.513 73.799 83.806 51.23 145.839-16.698 45.9-53.612 77.115-92.283 82.786 46.865 7.087 96.99-27.019 117.289-82.786 22.568-62.032-.368-127.326-51.231-145.839z" fill="#ffe07d" fill-rule="evenodd"/></g><g><path clip-rule="evenodd" d="m256.009 259.698c53.98 0 98.01-53.697 98.01-119.529 0-65.831-44.03-119.529-98.01-119.529-54.009 0-98.039 53.698-98.039 119.529s44.03 119.529 98.039 119.529z" fill="#aa3684" fill-rule="evenodd"/></g><g><path clip-rule="evenodd" d="m256.009 20.639c54.122 0 98.01 53.528 98.01 119.529s-43.888 119.529-98.01 119.529c-4.253 0-8.421-.341-12.503-.964 48.225-7.485 85.508-57.724 85.508-118.565 0-60.843-37.283-111.081-85.508-118.565 4.082-.624 8.25-.964 12.503-.964z" fill="#8e2e73" fill-rule="evenodd"/></g><g><path d="m144.559 297.404c.851-4.053 4.819-6.634 8.846-5.811 4.054.851 6.662 4.819 5.811 8.846-.709 3.374.709 14.573 1.275 22.397.34 4.934 3.771 10.037 5.358 13.099 1.22 2.381 3.347 5.245 5.699 8.42 5.613 7.569 12.275 16.585 14.828 28.493 1.191 5.387.028 11.198-1.305 17.86l-.794 3.913c-.766 4.083-4.678 6.749-8.731 5.982-4.055-.766-6.748-4.678-5.982-8.732.51-2.751.651-3.431.794-4.083.992-5.047 1.871-9.441 1.389-11.766-1.928-8.846-7.513-16.388-12.219-22.767-2.75-3.713-5.218-7.088-6.975-10.462-2.637-5.132-6.549-12.247-7.003-18.91-.679-9.212-1.869-22.226-.991-26.479zm209.063 3.232c-.851-4.025 1.757-7.995 5.811-8.846 4.026-.822 7.995 1.758 8.847 5.812 7.456 35.552-12.589 52.195-26.736 64.924-7.285 6.549-14.459 13.013-16.33 23.163-.737 4.055-4.622 6.748-8.704 6.01-4.054-.765-6.748-4.649-5.982-8.704 2.778-15.196 11.795-23.333 21.009-31.612 10.971-9.864 27.783-23.614 22.085-50.747zm-101.64-19.392c2.184-3.515 6.805-4.593 10.32-2.41 3.516 2.211 4.593 6.804 2.41 10.32-1.815 2.919-5.103 13.948-7.259 21.461-1.361 4.791.227 10.49.68 13.892.284 2.325 2.609 6.775 5.245 11.822 5.274 10.15 11.539 22.199 9.896 34.306-.397 3.004-1.474 5.755-2.921 8.449-1.077 2.069-2.636 4.422-4.28 6.917-2.269 3.458-6.89 4.395-10.349 2.155-3.459-2.268-4.395-6.917-2.126-10.349 1.275-1.956 2.467-3.77 3.516-5.755.708-1.332 1.219-2.494 1.332-3.402 1.022-7.371-4.082-17.153-8.392-25.403-3.232-6.237-6.096-11.766-6.747-16.869-.737-5.728-2.099-13.467-.284-19.846 2.552-8.929 6.662-21.573 8.959-25.288z" fill="#34467b"/></g><g><path clip-rule="evenodd" d="m264.4 259.272 12.248 23.759c2.892 5.613.737 7.117-4.31 7.117h-32.661c-5.075 0-6.747-2.439-4.338-7.117l12.248-23.759z" fill="#812969" fill-rule="evenodd"/></g><g><path clip-rule="evenodd" d="m149.435 272.484 19.648 18.145c4.139 3.828 2.664 6.577-1.645 8.165l-30.677 11.17c-4.877 1.758-7.173.057-6.52-5.217l3.402-26.508z" fill="#78c2a4" fill-rule="evenodd"/></g><g><path clip-rule="evenodd" d="m362.581 272.484-19.647 18.145c-3.828 3.515-2.665 6.577 1.643 8.165l30.677 11.17c5.132 1.673 7.06-.312 6.492-5.217l-3.374-26.508z" fill="#ffd064" fill-rule="evenodd"/></g><g><path clip-rule="evenodd" d="m256.009 336.813c-80.121 0-182.045 17.096-249.634 65.747-4.45 3.204-3.005 6.01 1.022 7.796l47.006 18.91c5.33 2.126 7.343 5.811 7.173 10.972l-1.531 46.922c-.142 3.089 2.184 5.84 5.982 3.033 47.545-35.184 135.377-46.553 189.982-46.553s142.408 11.369 189.953 46.553c3.799 2.807 6.152.057 6.01-3.033l-1.53-46.922c-.17-5.16 1.843-8.845 7.173-10.972l46.978-18.91c4.055-1.787 5.472-4.593 1.049-7.796-67.59-48.651-169.542-65.747-249.633-65.747z" fill="#94cdf6" fill-rule="evenodd"/></g><g><path clip-rule="evenodd" d="m426.853 478.343c6.889 3.601 13.296 7.541 19.108 11.851 3.799 2.807 6.152.057 6.01-3.033l-1.53-46.922c-.17-5.16 1.843-8.845 7.173-10.972l46.978-18.91c4.055-1.787 5.472-4.593 1.049-7.796-7.116-5.104-14.6-9.867-22.368-14.29.51 2.013-1.021 3.771-3.687 5.019l-46.978 20.583c-5.33 2.326-7.343 6.322-7.172 11.936l1.53 50.976c.029.537-.028 1.047-.113 1.558z" fill="#78a4ea" fill-rule="evenodd"/></g></g></svg>